<?xml version="1.0" encoding="utf-8"?>
<!-- Generator: Adobe Illustrator 19.1.0, SVG Export Plug-In . SVG Version: 6.00 Build 0)  -->
<svg version="1.1"
	 id="svg2455" sodipodi:version="0.32" sodipodi:docname="hot_logo_with_text.svg" inkscape:export-ydpi="120.95238" inkscape:export-filename="/home/harry/hotlogo/Logo_design_design.png" sodipodi:docbase="E:\osm" sodipodi:modified="true" inkscape:output_extension="org.inkscape.output.svg.inkscape" inkscape:version="0.45" inkscape:export-xdpi="120.95238" xmlns:dc="http://purl.org/dc/elements/1.1/" xmlns:ns="http://creativecommons.org/ns#" xmlns:rdf="http://www.w3.org/1999/02/22-rdf-syntax-ns#" xmlns:inkscape="http://www.inkscape.org/namespaces/inkscape" xmlns:sodipodi="http://sodipodi.sourceforge.net/DTD/sodipodi-0.dtd" xmlns:cc="http://web.resource.org/cc/" xmlns:svg="http://www.w3.org/2000/svg"
	 xmlns="http://www.w3.org/2000/svg" xmlns:xlink="http://www.w3.org/1999/xlink" x="0px" y="0px" viewBox="-54 74 106.5 106"
	 style="enable-background:new -54 74 106.5 106;" xml:space="preserve">
<style type="text/css">
	.st0{fill:#EAEAEA;}
	.st1{fill:#E2E2E2;}
	.st2{fill:#FFFFFF;}
	.st3{fill:#B5B5B5;}
	.st4{fill:#CCCCCC;}
	.st5{fill:#D73F3F;}
	.st6{fill:#A8A8A8;}
	.st7{fill:none;}
	.st8{fill:#898989;}
	.st9{fill:#939393;}
</style>
<g>
	<path class="st0" d="M131.5,156c12.5-15,16.3-16.5,31.5-18c7.5-0.7,12.2-7.5,15.1-14.2c-0.7-8.5-3.8-16.3-8.5-22.8
		c-2.7,2.1-6.6,4-10.9,8.3c-9.2,9.2-23.7-22.3-44.5-10c-20.8,12.3,7.8,18.2,2,26.3c-5.3,7.4-24.9,9.2-28.3,9.5
		c1.7,10.5,7,19.7,14.6,26.5C110.9,164,123.7,165.4,131.5,156z"/>
	<path class="st1" d="M163,138c-15.2,1.5-19,3-31.5,18c-7.8,9.4-20.6,8-29.1,5.7c8,7.2,18.7,11.6,30.3,11.6
		c25.1,0,45.5-20.4,45.5-45.5c0-1.3-0.1-2.7-0.2-4C175.2,130.5,170.5,137.3,163,138z"/>
</g>
<path class="st1" d="M116.2,125.7c5.8-8.2-22.8-14-2-26.3c20.8-12.3,35.3,19.2,44.5,10c4.3-4.3,8.2-6.2,10.9-8.3
	c-8.3-11.4-21.7-18.8-36.8-18.8c-25.1,0-45.5,20.4-45.5,45.5c0,2.5,0.2,5,0.6,7.4C91.3,134.9,110.9,133.1,116.2,125.7z"/>
<path class="st2" d="M145.9,141.9c1.6,3.7,0.8,10.1,0.8,10.6c0,0.5,0,2.5,0,4.9c0,2.4,1.8,14.8,1.8,14.8s-0.1,0-0.3,0
	c-0.3,0-0.9,0.2-1.8,0.4c-1.8,0.5-5.8,0-7.4,0c-0.4,0-1.3,0-2.5,0l-1.2,0.2c-1.8,0.4-4.6,1.5-5.8,1.5c-1.5,0-3.1,0.1-4.5,0.1
	c-1.2,0-2.1,0.1-2.5,0.1c-1.6,0-5.1,1.1-6.8,0.6c-1.8-0.5-2.2-0.5-2.2-0.5s2.7-13.6,2.7-16c0-0.6,0.1-1.4,0-2
	c-0.3-1.8-0.5-6.6-0.5-7c0-0.5-0.4-3.4,1.2-7c1.5-3.7,0.4-2.2,0.4-2.2s-1.2,2.5-1.4,3.2c-0.2,0.8-0.5,2.8-0.5,2.8s-0.9-2.9-2.7-3.3
	c-1.8-0.3-5.3-2.4-5.3-2.4s0.2-2.2,1.4-3.6c1.2-1.4,3.1-5.9,5.2-6.3c2.1-0.4,5.1-0.6,6.1-1c0.8-0.2,2.4-0.8,3.2-1
	c0.1,0.5,0.5,1.1,1.4,1.6c2.8,1.7-0.9-0.8-0.9-1.7c0-0.2,0-0.4,0-0.6v0c0.1-0.5,0.3-0.9,1.2-0.9c1.2-0.1,4.4-0.4,5.2-0.5l0,0.1
	c0,0,5.1,0.3,6.5,0.4c1.1,0.1,1.2,0.6,1.2,1.2l0,0c0,0,0,0,0,0v0.3c0,0.8-3.8,3.3-0.9,1.7c1-0.6,1.4-1.2,1.4-1.8c1,0.3,3,1,3.8,1.3
	c1,0.3,4,0.5,6.1,1c2.1,0.4,4,4.8,5.2,6.3c1.2,1.4,1.4,3.6,1.4,3.6s-3.5,2-5.3,2.4c-1.8,0.3-2.1,2.6-2.1,2.6s-0.3-2-0.5-2.8
	c-0.2-0.8-1.4-3.2-1.4-3.2S144.3,138.2,145.9,141.9z"/>
<g>
	<path class="st3" d="M133.5,124.2c0.4-1.8,1.1-4.1,1.1-4.1l-8.2,0.6c0,0,0.8,2,0.8,3.9C128.7,125.1,131,125.6,133.5,124.2z"/>
	<path class="st4" d="M133.2,125.9c0-0.3,0.1-1,0.3-1.7c-2.5,1.3-4.9,0.9-6.3,0.3c0,0.7-0.1,1.3-0.5,1.8c-1.2,1.9-1.5,1.6-1.5,1.6
		s0.9,3,5.5,3s5.3-2.7,5.3-2.7S133.2,127.1,133.2,125.9z"/>
</g>
<path class="st4" d="M108.8,141.8c0,0-4.9,18.4-4.6,24.5s2.4,10.4,2.4,10.4s1.9,1.2,3.5-1.1s4.4-8.5,4.4-9s-0.5-19.2,1.3-20.6
	S108.8,141.8,108.8,141.8z"/>
<path class="st4" d="M154.5,141.8c0,0,4.9,18.4,4.6,24.5s-2.4,10.4-2.4,10.4s-1.9,1.2-3.5-1.1s-3.8-7-3.8-7.5s-0.6-21.6-2.5-23
	S154.5,141.8,154.5,141.8z"/>
<g>
	
		<sodipodi:namedview  inkscape:pageopacity="0" inkscape:pageshadow="2" inkscape:window-width="1280" inkscape:window-height="702" inkscape:window-x="0" inkscape:window-y="22" inkscape:window-maximized="1" inkscape:current-layer="svg2455" inkscape:cy="15.034373" borderopacity="1" objecttolerance="10" showgrid="false" gridtolerance="10" inkscape:cx="148.55461" pagecolor="#ffffff" id="namedview4422" inkscape:zoom="2.4583333" bordercolor="#666666" guidetolerance="10">
		</sodipodi:namedview>
	<defs>
		
		
			<inkscape:perspective  inkscape:persp3d-origin="24 : 16 : 1" sodipodi:type="inkscape:persp3d" inkscape:vp_x="0 : 24 : 1" inkscape:vp_y="0 : 1000 : 0" id="perspective4424" inkscape:vp_z="48 : 24 : 1">
			</inkscape:perspective>
		
			<inkscape:perspective  inkscape:persp3d-origin="0.5 : 0.33333333 : 1" sodipodi:type="inkscape:persp3d" inkscape:vp_x="0 : 0.5 : 1" inkscape:vp_y="0 : 1000 : 0" id="perspective3056" inkscape:vp_z="1 : 0.5 : 1">
			</inkscape:perspective>
		
			<inkscape:perspective  inkscape:persp3d-origin="0.5 : 0.33333333 : 1" sodipodi:type="inkscape:persp3d" inkscape:vp_x="0 : 0.5 : 1" inkscape:vp_y="0 : 1000 : 0" id="perspective3229" inkscape:vp_z="1 : 0.5 : 1">
			</inkscape:perspective>
		
			<inkscape:perspective  inkscape:persp3d-origin="0.5 : 0.33333333 : 1" sodipodi:type="inkscape:persp3d" inkscape:vp_x="0 : 0.5 : 1" inkscape:vp_y="0 : 1000 : 0" id="perspective3558" inkscape:vp_z="1 : 0.5 : 1">
			</inkscape:perspective>
		
			<inkscape:perspective  inkscape:persp3d-origin="0.5 : 0.33333333 : 1" sodipodi:type="inkscape:persp3d" inkscape:vp_x="0 : 0.5 : 1" inkscape:vp_y="0 : 1000 : 0" id="perspective4880" inkscape:vp_z="1 : 0.5 : 1">
			</inkscape:perspective>
	</defs>
	<g id="layer4_2_" transform="matrix(0.08798405,0,0,0.08595212,224.99266,113.54974)">
	</g>
	<g id="g8210-6-1-6_2_" transform="translate(-347.65009,-167.71083)">
		<path id="path8022-0-2-8-5_2_" inkscape:connector-curvature="0" class="st5" d="M472.1,303.4l1.9,2.2h0h-3.3l1.9,2.2l0,0h0h-3.3
			l1.9,2.2l1.9,2.2l1.9,2.2h3.3h3.3h3.2l-1.9-2.2l0,0h0h3.3l-1.9-2.2l0,0h3.3l-2-2.2l-1.9-2.2l-1.9-2.2h-3.3h-3.3H472.1L472.1,303.4
			z"/>
		
			<path id="path8066-3-4-4-6_2_" sodipodi:rx="18.875" sodipodi:ry="18.875" sodipodi:cx="144.125" sodipodi:cy="483.375" sodipodi:type="arc" class="st2" d="
			M482.5,309c0,2-1.8,3.7-3.9,3.7s-3.9-1.7-3.9-3.7l0,0c0-2,1.8-3.7,3.9-3.7S482.5,306.9,482.5,309z"/>
		<g id="g8068-3-7-6-2_2_" transform="matrix(0.9358396,0,0,0.8755149,168.45563,-472.46106)">
			<path id="path8070-6-8-6-5_2_" class="st5" d="M329.1,892.8v1.4h-0.5V891h0.5v1.3h0.7V891h0.5v3.2h-0.5v-1.4H329.1"/>
			<path id="path8072-1-6-7-9_2_" class="st5" d="M331.2,893.1c0,0.1,0,0.1,0,0.2c0,0,0,0.1,0,0.1c0,0,0,0.1,0,0.1s0,0,0,0.1
				c0,0.1,0.1,0.1,0.1,0.1c0.1,0,0.1,0,0.2,0s0.1,0,0.2,0c0.1,0,0.1-0.1,0.1-0.1c0,0,0,0,0-0.1c0,0,0-0.1,0-0.1c0,0,0-0.1,0-0.1
				c0,0,0-0.1,0-0.2V892c0-0.1,0-0.1,0-0.2c0,0,0-0.1,0-0.1c0,0,0-0.1,0-0.1c0,0,0-0.1,0-0.1c0-0.1-0.1-0.1-0.1-0.1
				c-0.1,0-0.1,0-0.2,0c-0.1,0-0.1,0-0.2,0c-0.1,0-0.1,0.1-0.1,0.1c0,0,0,0.1-0.1,0.2c0,0.1,0,0.2,0,0.3V893.1 M332.5,893.1
				c0,0.2,0,0.3,0,0.4c0,0.1-0.1,0.2-0.1,0.3c-0.1,0.2-0.4,0.3-0.7,0.3s-0.5-0.1-0.7-0.3c-0.1-0.1-0.1-0.2-0.1-0.3
				c0-0.1,0-0.3,0-0.4V892c0-0.2,0-0.3,0-0.4c0-0.1,0.1-0.2,0.1-0.3c0.1-0.2,0.4-0.3,0.7-0.3s0.5,0.1,0.7,0.3
				c0.1,0.1,0.1,0.2,0.1,0.3c0,0.1,0,0.3,0,0.4V893.1"/>
			<path id="path8074-8-3-2-1_2_" class="st5" d="M333.9,894.2h-0.5v-2.7h-0.6V891h1.7v0.5h-0.6V894.2"/>
		</g>
	</g>
</g>
<path class="st4" d="M142.4,109c0,4.7-1.6,8.8-4.5,11.5c-2.1,2-5,3.2-7.9,3.2c-2.9,0-6.2-1.6-8.3-3.6c-2.8-2.7-4-6.5-4-11.2
	c0-8.1,5.5-14.8,12.4-14.8C136.8,94.2,142.4,100.9,142.4,109z"/>
<path class="st6" d="M117.6,110.5c0,0,0.5-2,0.6-3c0.1-0.7-0.2-1.6,0.3-3.1c1-2.7,1.1-3.4,6.2-4.4c5-1,5.6,2,10.8,1.7
	c5.2-0.4,6.3,6.5,6.3,6.5s0.4,2.1,0.3,3c0,0,3.7-5.8,1.9-10.9c0,0,0,0,0-0.1c-0.4-1.2-1.2-2.5-2.4-3.5c-6.3-5.5-2.9,0.4-5.8-3.1
	c-2.7-3.3-14.9-4-16.8,2.7c-0.1,0.4-1.8,2.8-1.8,3.2C116.3,106.9,117.6,110.5,117.6,110.5z"/>
<path class="st6" d="M128.2,113.4c0,0,1.2,0.9,2.4,0.9s2-1.4,2-1.4s-0.9,0.8-1.9,0.8S128.2,113.4,128.2,113.4z"/>
<path class="st6" d="M121.2,107c0,0,2.4-2.9,5.1-2.1c2.7,0.8-1.4-1.3-3-0.6S121.2,107,121.2,107z"/>
<path class="st6" d="M138.9,106.6c0,0-2.7-2.7-5.3-1.5c-2.6,1.1,1.2-1.5,3-0.9C138.3,104.8,138.9,106.6,138.9,106.6z"/>
<circle class="st6" cx="125.6" cy="109.4" r="0.6"/>
<circle class="st6" cx="134.5" cy="109.4" r="0.6"/>
<g>
	<path class="st7" d="M118.1,107.6c0,0,0.1-0.1,0.2-0.3c-0.5,0.1-1,0.5-1.4,1.7c0.5,1,0.9,1.6,0.9,1.6
		C117.7,109.8,118.1,107.6,118.1,107.6z"/>
</g>
<g>
	<path class="st4" d="M149.2,144c-1.8,0-1.8,2.2-1.8,2.2s1.1,5.5-0.3,9.3c-1.4,3.8,1.8,17.1,1.8,17.1s-5.5,0.6-10.1,0.5
		c-0.8,0-1.6,0-2.4,0v-0.4c1.2,0,2.1,0,2.5,0c1.6,0,5.6,0.4,7.4,0s2.2-0.5,2.2-0.5s-2-12.6-2-14.9c0-2.4,0.2-4.2,0.2-4.7
		c0-0.5,0.8-6.9-0.8-10.6c-1.5-3.7-0.4-2.2-0.4-2.2s1.2,2.5,1.4,3.2c0.2,0.8,0.5,2.8,0.5,2.8s0.3-2.3,2.1-2.6
		c1.8-0.3,5.3-2.4,5.3-2.4s-0.2-2.2-1.4-3.6c-1.2-1.4-3.1-5.9-5.2-6.3c-2.1-0.4-5.1-0.6-6.1-1c-0.8-0.3-2.8-0.9-3.8-1.3
		c0,0.6-0.4,1.2-1.4,1.8c-2.8,1.7,0.9-0.8,0.9-1.7v-0.3c0,0,0,0,0,0l0,0c0-0.7-0.1-1.2-1.2-1.2c-1.3-0.1-6.5-0.4-6.5-0.4l0-0.1
		c-0.8,0.1-4.1,0.4-5.2,0.5c-1,0.1-1.2,0.4-1.2,0.9v0c0,0.2,0,0.4,0,0.6c0,0.8,3.8,3.3,0.9,1.7c-0.9-0.5-1.3-1.1-1.4-1.6
		c-0.8,0.2-2.4,0.8-3.2,1c-1,0.3-4,0.5-6.1,1c-2.1,0.4-4,4.8-5.2,6.3c-1.2,1.4-1.4,3.6-1.4,3.6s3.5,2,5.3,2.4
		c1.8,0.3,2.7,3.3,2.7,3.3s0.3-2,0.5-2.8c0.2-0.8,1.4-3.2,1.4-3.2s1.2-1.4-0.4,2.2c-1.6,3.7-0.8,10.1-0.8,10.6
		c0,0.5,0.2,3.4,0.2,5.8c0,2.4-2.8,15.7-2.8,15.7s0.4,0,2.2,0.5c1.8,0.5,5.2-0.6,6.8-0.6c0.4,0,1.3,0,2.5-0.1v0.4
		c-0.8,0-1.7,0-2.4,0c-4.6,0.1-9.5,0.2-9.5,0.2s3.1-15,2.6-19c-0.5-3.6-0.3-9.3-0.3-9.3s-0.5-2.9-2.4-2.9c-1.8,0-6.4-2.9-6.4-2.9
		s0.6-0.9,0.9-2.5c0.3-1.6,5-8.7,6.8-8.5c1.5,0.2,7-1.5,8.7-2c0.2-0.9,1-1.6,1.4-1.6c0.8,0,5.2-0.8,5.2-0.8l0.1,0.2
		c0,0,6.3,0.6,7,0.6c0.4,0,1.2,0.6,1.4,1.4c1.4,0.4,7.8,2.4,9.5,2.2c1.8-0.2,6.5,6.8,6.8,8.5c0.3,1.6,0.9,2.5,0.9,2.5
		S151.1,144,149.2,144z"/>
	<path class="st4" d="M129.5,174.3c-1.5,0-3.1,0.1-4.5,0.1v0.4c1.5,0,3.1,0,4.5,0c1.4,0,5.4-1.9,7-1.9v-0.4
		C135.1,172.6,131,174.4,129.5,174.3z"/>
</g>
<g>
	<path class="st4" d="M149.2,144c-1.8,0-1.8,2.2-1.8,2.2s-0.1,5.2-0.3,9.3c-0.2,4.7,1.8,17.1,1.8,17.1l-0.8-0.4c0.2,0,0.3,0,0.3,0
		s-2.1-14.1-2.1-16.4c0-2.4,0.3-2.7,0.3-3.2c0-0.5,0.8-6.9-0.8-10.6c-1.5-3.7-0.4-2.2-0.4-2.2s1.2,2.5,1.4,3.2
		c0.2,0.8,0.5,2.8,0.5,2.8s0.3-2.3,2.1-2.6c1.8-0.3,5.3-2.4,5.3-2.4s-0.2-2.2-1.4-3.6c-1.2-1.4-3.1-5.9-5.2-6.3
		c-2.1-0.4-5.1-0.6-6.1-1c-0.8-0.3-2.8-0.9-3.8-1.3c0,0.6-0.4,1.2-1.4,1.8c-2.8,1.7,0.9-0.8,0.9-1.7v-0.3c0,0,0,0,0,0l0,0
		c0-0.7-0.1-1.2-1.2-1.2c-1.3-0.1-6.5-0.4-6.5-0.4l0-0.1c-0.8,0.1-4.1,0.4-5.2,0.5c-1,0.1-1.2,0.4-1.2,0.9v0c0,0.2,0,0.4,0,0.6
		c0,0.8,3.8,3.3,0.9,1.7c-0.9-0.5-1.3-1.1-1.4-1.6c-0.8,0.2-2.4,0.8-3.2,1c-1,0.3-4,0.5-6.1,1c-2.1,0.4-4,4.8-5.2,6.3
		c-1.2,1.4-1.4,3.6-1.4,3.6s3.5,2,5.3,2.4c1.8,0.3,2.7,3.3,2.7,3.3s0.3-2,0.5-2.8c0.2-0.8,1.4-3.2,1.4-3.2s1.2-1.4-0.4,2.2
		c-1.6,3.7-0.8,10.1-0.8,10.6c0,0.4-0.1,2.4,0.2,4.2l-0.7-1.2c-0.4-4.8-0.3-9.3-0.3-9.3s-0.5-2.9-2.4-2.9c-1.8,0-6.4-2.9-6.4-2.9
		s0.6-0.9,0.9-2.5c0.3-1.6,5-8.7,6.8-8.5c1.5,0.2,7-1.5,8.7-2c0.2-0.9,1-1.6,1.4-1.6c0.8,0,5.2-0.8,5.2-0.8l0.1,0.2
		c0,0,6.3,0.6,7,0.6c0.4,0,1.2,0.6,1.4,1.4c1.4,0.4,7.8,2.4,9.5,2.2c1.8-0.2,6.5,6.8,6.8,8.5c0.3,1.6,0.9,2.5,0.9,2.5
		S151.1,144,149.2,144z"/>
</g>
<path class="st6" d="M129.2,114.9c0,0-4.4-0.4-5.1,1.9s-1.2,2.3-1.2,2.3s-4.9-8.1-4.9-10.6s-0.8,1.9,0,4.7s2.4,10.7,12.6,10.7
	s11.1-8.9,11.1-8.9s0.8-3.3,0.8-4.8s-0.6,2.1-1.3,4.2s-3,4.8-3,4.8s-0.4-3-1.1-3.6s-3.4-1.1-5.2-0.9S129.2,114.9,129.2,114.9z"/>
<g>
	<path class="st8" d="M126.2,118c0,0,0.6,0,1.5,0.1c0.9,0.1,2.1,0.2,3.3,0.3c0.6,0,1.2,0,1.7,0.1c0.6,0,1.1,0,1.5-0.1
		c0.4-0.1,0.8-0.1,1.1-0.2c0.3-0.1,0.4-0.1,0.4-0.1s-0.1,0.1-0.4,0.2c-0.2,0.1-0.6,0.3-1,0.4c-0.4,0.1-1,0.2-1.6,0.3
		c-0.3,0-0.6,0.1-0.9,0.1c-0.3,0-0.6,0-0.9,0c-1.2-0.1-2.4-0.3-3.3-0.6C126.7,118.3,126.2,118,126.2,118z"/>
</g>
<g>
	<path class="st0" d="M-3.2,155.4c12.5-15,16.3-16.5,31.5-18c7.5-0.7,12.2-7.5,15.1-14.2c-0.7-8.5-3.8-16.3-8.5-22.8
		c-2.7,2.1-6.6,4-10.9,8.3c-9.2,9.2-23.7-22.3-44.5-10c-20.8,12.3,7.8,18.2,2,26.3c-5.3,7.4-24.9,9.2-28.3,9.5
		c1.7,10.5,7,19.7,14.6,26.5C-23.8,163.4-11.1,164.8-3.2,155.4z"/>
	<path class="st1" d="M28.3,137.4c-15.2,1.5-19,3-31.5,18c-7.8,9.4-20.6,8-29.1,5.7c8,7.2,18.7,11.6,30.3,11.6
		c25.1,0,45.5-20.4,45.5-45.5c0-1.3-0.1-2.7-0.2-4C40.5,129.9,35.7,136.7,28.3,137.4z"/>
</g>
<path class="st1" d="M-18.6,125.1c5.8-8.2-22.8-14-2-26.3c20.8-12.3,35.3,19.2,44.5,10c4.3-4.3,8.2-6.2,10.9-8.3
	C26.6,89,13.2,81.6-2,81.6c-25.1,0-45.5,20.4-45.5,45.5c0,2.5,0.2,5,0.6,7.4C-43.5,134.3-23.9,132.5-18.6,125.1z"/>
<path class="st2" d="M9.5,140.7c1.6,3.7,0.8,10.1,0.8,10.6c0,0.5-0.9,3.1-0.9,5.5c0,2.4,2.8,14.2,2.8,14.2s-0.1,0-0.3,0
	c-0.3,0-0.9,0.2-1.8,0.4c-1.8,0.5-4.1,0.7-5.7,0.7c-0.4,0-1.3,0-2.5,0l-1.2,0.2c-1.8,0.4-4.6,1.5-5.8,1.5c-1.5,0-3.1,0.1-4.5,0.1
	c-1.2,0-2.1,0.1-2.5,0.1c-1.6,0-4-0.2-5.7-0.7c-1.8-0.5-2.2-0.5-2.2-0.5s3.5-13.7,3.5-16c0-0.6-0.1-1.2-0.1-1.7
	c-0.3-1.8-0.8-3.4-0.8-3.7c0-0.5-0.8-6.9,0.8-10.6c1.5-3.7,0.4-2.2,0.4-2.2s-1.2,2.5-1.4,3.2c-0.2,0.8-0.5,2.8-0.5,2.8s-2-1.6-3.8-2
	c-1.8-0.3-5.3-2.4-5.3-2.4s0.2-2.2,1.4-3.6c1.2-1.4,3.1-5.9,5.2-6.3c2.1-0.4,5.1-0.6,6.1-1c0.8-0.2,2.4-0.8,3.2-1
	c0.1,0.5,0.5,1.1,1.4,1.6c2.8,1.7-0.9-0.8-0.9-1.7c0-0.2,0-0.4,0-0.6v0c0.1-0.5,0.3-0.9,1.2-0.9c1.2-0.1,4.4-0.4,5.2-0.5l0,0.1
	c0,0,5.1,0.3,6.5,0.4c1.1,0.1,1.2,0.6,1.2,1.2l0,0c0,0,0,0,0,0v0.3c0,0.8-3.8,3.3-0.9,1.7c1-0.6,1.4-1.2,1.4-1.8c1,0.3,3,1,3.8,1.3
	c1,0.3,4,0.5,6.1,1c2.1,0.4,4,4.8,5.2,6.3c1.2,1.4,1.4,3.6,1.4,3.6s-3.5,2-5.3,2.4c-1.8,0.3-3.8,2-3.8,2s-0.3-2-0.5-2.8
	c-0.2-0.8-1.4-3.2-1.4-3.2S7.9,137,9.5,140.7z"/>
<path class="st9" d="M7.6,109.2c-0.2,0.8-0.3,1.2-0.3,1.2s-1.7-1-1.8-5.6c-0.1-4.6,0-5.6-2.7-6.5c-2.7-0.9-1.9,2.7-6.9,1.7
	c-5-1,0,3.9-5.3,3.5c-4.4-0.3-6.5,2.3-7.1,3.2c0.5-0.1,0.9,0.1,0.9,0.1s-0.4-0.2-0.9-0.1c-0.1,0.2-0.2,0.3-0.2,0.3s-0.4,2.1-0.3,3
	c0,0-0.4-0.6-0.9-1.6c-0.1,0.2-0.1,0.5-0.2,0.8c-0.3,1.8-0.2,4.6-0.9,6.8c0.6,0.7,1.3,1.3,2.3,1.8c3.8,1.9,2.5,4.1,6,2.4
	s8-0.9,10-0.9s5.1,1.5,7.4-0.9c1.8-1.9,5.3-0.5,5.1-5.8C10.1,111.3,8.4,109.9,7.6,109.2z"/>
<g>
	<path class="st3" d="M-1.2,123.6c0.4-1.8,1.1-4.1,1.1-4.1l-8.2,0.6c0,0,0.8,2,0.8,3.9C-6.1,124.5-3.7,125-1.2,123.6z"/>
	<path class="st4" d="M-1.5,125.3c0-0.3,0.1-1,0.3-1.7c-2.5,1.3-4.9,0.9-6.3,0.3c0,0.7-0.1,1.3-0.5,1.8c-1.3,1.9-1.5,1.6-1.5,1.6
		s0.9,3,5.5,3s5.3-2.7,5.3-2.7S-1.5,126.5-1.5,125.3z"/>
</g>
<path class="st4" d="M-26.4,141.1c0,0-4.9,18.4-4.6,24.5s2.4,10.4,2.4,10.4s1.9,1.2,3.5-1.1s2.6-8.9,2.6-9.4s1.1-19.6,3-21
	S-26.4,141.1-26.4,141.1z"/>
<path class="st4" d="M19.8,141.1c0,0,4.9,18.4,4.6,24.5S22,176,22,176s-1.9,1.2-3.5-1.1s-2.6-8.9-2.6-9.4s-1.1-19.6-3-21
	S19.8,141.1,19.8,141.1z"/>
<g>
	
		<sodipodi:namedview  inkscape:pageopacity="0" inkscape:pageshadow="2" inkscape:window-width="1280" inkscape:window-height="702" inkscape:window-x="0" inkscape:window-y="22" inkscape:window-maximized="1" inkscape:current-layer="svg2455" inkscape:cy="15.034373" borderopacity="1" objecttolerance="10" showgrid="false" gridtolerance="10" inkscape:cx="148.55461" pagecolor="#ffffff" id="namedview4422" inkscape:zoom="2.4583333" bordercolor="#666666" guidetolerance="10">
		</sodipodi:namedview>
	<defs>
		
		
			<inkscape:perspective  inkscape:persp3d-origin="24 : 16 : 1" sodipodi:type="inkscape:persp3d" inkscape:vp_x="0 : 24 : 1" inkscape:vp_y="0 : 1000 : 0" id="perspective4424" inkscape:vp_z="48 : 24 : 1">
			</inkscape:perspective>
		
			<inkscape:perspective  inkscape:persp3d-origin="0.5 : 0.33333333 : 1" sodipodi:type="inkscape:persp3d" inkscape:vp_x="0 : 0.5 : 1" inkscape:vp_y="0 : 1000 : 0" id="perspective3056" inkscape:vp_z="1 : 0.5 : 1">
			</inkscape:perspective>
		
			<inkscape:perspective  inkscape:persp3d-origin="0.5 : 0.33333333 : 1" sodipodi:type="inkscape:persp3d" inkscape:vp_x="0 : 0.5 : 1" inkscape:vp_y="0 : 1000 : 0" id="perspective3229" inkscape:vp_z="1 : 0.5 : 1">
			</inkscape:perspective>
		
			<inkscape:perspective  inkscape:persp3d-origin="0.5 : 0.33333333 : 1" sodipodi:type="inkscape:persp3d" inkscape:vp_x="0 : 0.5 : 1" inkscape:vp_y="0 : 1000 : 0" id="perspective3558" inkscape:vp_z="1 : 0.5 : 1">
			</inkscape:perspective>
		
			<inkscape:perspective  inkscape:persp3d-origin="0.5 : 0.33333333 : 1" sodipodi:type="inkscape:persp3d" inkscape:vp_x="0 : 0.5 : 1" inkscape:vp_y="0 : 1000 : 0" id="perspective4880" inkscape:vp_z="1 : 0.5 : 1">
			</inkscape:perspective>
	</defs>
	<g id="layer4_1_" transform="matrix(0.08798405,0,0,0.08595212,224.99266,113.54974)">
	</g>
	<g id="g8210-6-1-6_1_" transform="translate(-347.65009,-167.71083)">
		<path id="path8022-0-2-8-5_1_" inkscape:connector-curvature="0" class="st5" d="M337.4,302.8l1.9,2.2h0h-3.3l1.9,2.2l0,0h0h-3.3
			l1.9,2.2l1.9,2.2l1.9,2.2h3.3h3.3h3.2l-1.9-2.2l0,0h0h3.3l-1.9-2.2l0,0h3.3l-2-2.2l-1.9-2.2l-1.9-2.2h-3.3h-3.3H337.4L337.4,302.8
			z"/>
		
			<path id="path8066-3-4-4-6_1_" sodipodi:rx="18.875" sodipodi:ry="18.875" sodipodi:cx="144.125" sodipodi:cy="483.375" sodipodi:type="arc" class="st2" d="
			M347.8,308.4c0,2-1.8,3.7-3.9,3.7s-3.9-1.7-3.9-3.7l0,0c0-2,1.8-3.7,3.9-3.7S347.8,306.3,347.8,308.4z"/>
		<g id="g8068-3-7-6-2_1_" transform="matrix(0.9358396,0,0,0.8755149,168.45563,-472.46106)">
			<path id="path8070-6-8-6-5_1_" class="st5" d="M185.1,892.1v1.4h-0.5v-3.2h0.5v1.3h0.7v-1.3h0.5v3.2h-0.5v-1.4H185.1"/>
			<path id="path8072-1-6-7-9_1_" class="st5" d="M187.2,892.5c0,0.1,0,0.1,0,0.2c0,0,0,0.1,0,0.1c0,0,0,0.1,0,0.1c0,0,0,0,0,0.1
				c0,0.1,0.1,0.1,0.1,0.1c0.1,0,0.1,0,0.2,0c0.1,0,0.1,0,0.2,0c0.1,0,0.1-0.1,0.1-0.1c0,0,0,0,0-0.1c0,0,0-0.1,0-0.1
				c0,0,0-0.1,0-0.1c0,0,0-0.1,0-0.2v-1.2c0-0.1,0-0.1,0-0.2c0,0,0-0.1,0-0.1c0,0,0-0.1,0-0.1c0,0,0-0.1,0-0.1
				c0-0.1-0.1-0.1-0.1-0.1c-0.1,0-0.1,0-0.2,0c-0.1,0-0.1,0-0.2,0c-0.1,0-0.1,0.1-0.1,0.1c0,0,0,0.1-0.1,0.2c0,0.1,0,0.2,0,0.3
				V892.5 M188.5,892.5c0,0.2,0,0.3,0,0.4c0,0.1-0.1,0.2-0.1,0.3c-0.1,0.2-0.4,0.3-0.7,0.3c-0.3,0-0.5-0.1-0.7-0.3
				c-0.1-0.1-0.1-0.2-0.1-0.3c0-0.1,0-0.3,0-0.4v-1.2c0-0.2,0-0.3,0-0.4c0-0.1,0.1-0.2,0.1-0.3c0.1-0.2,0.4-0.3,0.7-0.3
				c0.3,0,0.5,0.1,0.7,0.3c0.1,0.1,0.1,0.2,0.1,0.3c0,0.1,0,0.3,0,0.4V892.5"/>
			<path id="path8074-8-3-2-1_1_" class="st5" d="M189.9,893.5h-0.5v-2.7h-0.6v-0.5h1.7v0.5h-0.6V893.5"/>
		</g>
	</g>
</g>
<path class="st4" d="M7.6,108.4c0,4.7-2.4,7.7-5.2,10.4c-2.1,2-4.2,4.4-7.1,4.4s-6.2-3.1-8.3-5.1c-2.8-2.7-4.1-5-4.1-9.6
	c0-8.1,5.5-14.8,12.4-14.8S7.6,100.2,7.6,108.4z"/>
<g>
	<path class="st6" d="M-11,116.6c0,0,0.9,0.1,2.3,0.2c0.7,0,1.5,0.1,2.4,0c0.4,0,0.9,0,1.3-0.1c0.4,0,0.9-0.1,1.3-0.1
		c0.4-0.1,0.9-0.1,1.3-0.2c0.4-0.1,0.9-0.2,1.2-0.4c0.4-0.2,0.8-0.3,1.1-0.4c0.3-0.2,0.7-0.3,1-0.5c0.3-0.2,0.6-0.3,0.8-0.5
		c0.2-0.2,0.4-0.3,0.6-0.5c0.3-0.3,0.5-0.4,0.5-0.4s-0.1,0.2-0.4,0.5c-0.1,0.2-0.3,0.4-0.5,0.6c-0.2,0.2-0.4,0.4-0.7,0.7
		c-0.3,0.3-0.6,0.4-0.9,0.7c-0.3,0.3-0.7,0.4-1.2,0.6c-0.4,0.2-0.9,0.3-1.3,0.5c-0.5,0.1-0.9,0.2-1.4,0.3c-0.5,0-1,0.1-1.4,0.1
		c-0.5,0-0.9,0-1.4,0c-0.9,0-1.7-0.2-2.4-0.3C-10.1,117.1-11,116.6-11,116.6z"/>
</g>
<path class="st6" d="M12.6,113c0,0-7-3.6-7.1-8.2c-0.1-4.6,0-5.6-2.7-6.5c-2.7-0.9-1.9,2.7-6.9,1.7c-5-1-3.7,7-9,6.6
	c-5.2-0.4-3.5,0.4-3.5,0.4s-0.4,2.1-0.3,3c0,0-3.7-5.8-1.9-10.9c0,0,0,0,0-0.1c0.4-1.2,1.2-2.5,2.4-3.5c6.3-5.5,7.2-1.6,10.1-5.1
	c2.7-3.3,12.2,0.1,14,6.7c0.1,0.4,0.2,0.8,0.2,1.2C8.9,105.6,12.6,113,12.6,113z"/>
<path class="st6" d="M-6.5,112.8c0,0,1.2,0.9,2.4,0.9s2-1.4,2-1.4S-3,113-4,113S-6.5,112.8-6.5,112.8z"/>
<path class="st6" d="M-13.5,106.3c0,0,2.4-2.9,5.1-2.1c2.7,0.8-1.4-1.3-3-0.6S-13.5,106.3-13.5,106.3z"/>
<path class="st6" d="M4.2,106c0,0-2.7-2.7-5.3-1.5c-2.6,1.1,1.2-1.5,3-0.9C3.6,104.2,4.2,106,4.2,106z"/>
<circle class="st6" cx="-9.1" cy="108.8" r="0.6"/>
<circle class="st6" cx="-0.2" cy="108.8" r="0.6"/>
<g>
	<path class="st7" d="M-16.6,107c0,0,0.1-0.1,0.2-0.3c-0.5,0.1-1,0.5-1.4,1.7c0.5,1,0.9,1.6,0.9,1.6C-17,109.1-16.6,107-16.6,107z"
		/>
	<path class="st6" d="M11.1,107.6C10,102.9,9,99.5,7.7,97.1c0.1,0.4,0.2,0.8,0.2,1.2c0.7,5.2,0.1,9.1-0.3,10.9
		c0.8,0.7,2.4,2.1,4.3,3.4C11.9,111.3,11.6,109.7,11.1,107.6z"/>
</g>
<path class="st9" d="M-17.7,109.6c0,0-0.4,1.8-1.3,3s-1.7,2.4-1.7,2.4l1.1,0.5c0,0,2-2.5,2-3.3C-17.5,111.4-17.7,109.6-17.7,109.6z"
	/>
<g>
	<path class="st4" d="M14.5,143.4c-1.8,0-3.4,1.6-3.4,1.6s1.1,5.5-0.3,9.3c-1.4,3.8,1.8,17.1,1.8,17.1s-3.9,1.2-8.4,1.1
		c-0.8,0-1.6,0-2.4,0V172c1.2,0,2.1,0,2.5,0c1.6,0,4-0.2,5.7-0.7s2.2-0.5,2.2-0.5s-2.8-11.8-2.8-14.2c0-2.4,0.9-5,0.9-5.5
		c0-0.5,0.8-6.9-0.8-10.6c-1.5-3.7-0.4-2.2-0.4-2.2s1.2,2.5,1.4,3.2c0.2,0.8,0.5,2.8,0.5,2.8s2-1.6,3.8-2c1.8-0.3,5.3-2.4,5.3-2.4
		s-0.2-2.2-1.4-3.6c-1.2-1.4-3.1-5.9-5.2-6.3c-2.1-0.4-5.1-0.6-6.1-1c-0.8-0.3-2.8-0.9-3.8-1.3c0,0.6-0.4,1.2-1.4,1.8
		c-2.8,1.7,0.9-0.8,0.9-1.7v-0.3c0,0,0,0,0,0l0,0c0-0.7-0.1-1.2-1.2-1.2c-1.3-0.1-6.5-0.4-6.5-0.4l0-0.1c-0.8,0.1-4.1,0.4-5.2,0.5
		c-1,0.1-1.2,0.4-1.2,0.9v0c0,0.2,0,0.4,0,0.6c0,0.8,3.8,3.3,0.9,1.7c-0.9-0.5-1.3-1.1-1.4-1.6c-0.8,0.2-2.4,0.8-3.2,1
		c-1,0.3-4,0.5-6.1,1c-2.1,0.4-4,4.8-5.2,6.3c-1.2,1.4-1.4,3.6-1.4,3.6s3.5,2,5.3,2.4c1.8,0.3,3.8,2,3.8,2s0.3-2,0.5-2.8
		c0.2-0.8,1.4-3.2,1.4-3.2s1.2-1.4-0.4,2.2c-1.6,3.7-0.8,10.1-0.8,10.6c0,0.5,0.9,3.1,0.9,5.5c0,2.4-3.5,16-3.5,16s0.4,0,2.2,0.5
		c1.8,0.5,4.1,0.7,5.7,0.7c0.4,0,1.3,0,2.5-0.1v0.4c-0.8,0-1.7,0-2.4,0c-4.6,0.1-8.4-1.1-8.4-1.1s3.9-15.2,2.6-19
		c-1.3-3.8-0.3-9.3-0.3-9.3s-1.6-1.6-3.4-1.6c-1.8,0-6.4-2.9-6.4-2.9s0.6-0.9,0.9-2.5c0.3-1.6,5-8.7,6.8-8.5c1.5,0.2,7-1.5,8.7-2
		c0.2-0.9,1-1.6,1.4-1.6c0.8,0,5.2-0.8,5.2-0.8l0.1,0.2c0,0,6.3,0.6,7,0.6c0.4,0,1.2,0.6,1.4,1.4c1.4,0.4,7.8,2.4,9.5,2.2
		c1.8-0.2,6.5,6.8,6.8,8.5c0.3,1.6,0.9,2.5,0.9,2.5S16.3,143.4,14.5,143.4z"/>
	<path class="st4" d="M-5.2,173.7c-1.5,0-3.1,0.1-4.5,0.1v0.4c1.5,0,3.1,0,4.5,0c1.4,0,5.4-1.9,7-1.9V172
		C0.4,172-3.7,173.8-5.2,173.7z"/>
</g>
<g>
	<path class="st4" d="M14.5,143.4c-1.8,0-3.4,1.6-3.4,1.6s1.1,5.5-0.3,9.3c-1.4,3.8,1.8,17.1,1.8,17.1l-0.8-0.4c0.2,0,0.3,0,0.3,0
		s-2.8-11.8-2.8-14.2c0-2.4,0.9-5,0.9-5.5c0-0.5,0.8-6.9-0.8-10.6c-1.5-3.7-0.4-2.2-0.4-2.2s1.2,2.5,1.4,3.2
		c0.2,0.8,0.5,2.8,0.5,2.8s2-1.6,3.8-2c1.8-0.3,5.3-2.4,5.3-2.4s-0.2-2.2-1.4-3.6c-1.2-1.4-3.1-5.9-5.2-6.3c-2.1-0.4-5.1-0.6-6.1-1
		c-0.8-0.3-2.8-0.9-3.8-1.3c0,0.6-0.4,1.2-1.4,1.8c-2.8,1.7,0.9-0.8,0.9-1.7v-0.3c0,0,0,0,0,0l0,0c0-0.7-0.1-1.2-1.2-1.2
		c-1.3-0.1-6.5-0.4-6.5-0.4l0-0.1c-0.8,0.1-4.1,0.4-5.2,0.5c-1,0.1-1.2,0.4-1.2,0.9v0c0,0.2,0,0.4,0,0.6c0,0.8,3.8,3.3,0.9,1.7
		c-0.9-0.5-1.3-1.1-1.4-1.6c-0.8,0.2-2.4,0.8-3.2,1c-1,0.3-4,0.5-6.1,1c-2.1,0.4-4,4.8-5.2,6.3c-1.2,1.4-1.4,3.6-1.4,3.6
		s3.5,2,5.3,2.4c1.8,0.3,3.8,2,3.8,2s0.3-2,0.5-2.8c0.2-0.8,1.4-3.2,1.4-3.2s1.2-1.4-0.4,2.2c-1.6,3.7-0.8,10.1-0.8,10.6
		c0,0.4,0.5,1.9,0.8,3.7l-1.3-0.7c-1.3-3.8-0.3-9.3-0.3-9.3s-1.6-1.6-3.4-1.6c-1.8,0-6.4-2.9-6.4-2.9s0.6-0.9,0.9-2.5
		c0.3-1.6,5-8.7,6.8-8.5c1.5,0.2,7-1.5,8.7-2c0.2-0.9,1-1.6,1.4-1.6c0.8,0,5.2-0.8,5.2-0.8l0.1,0.2c0,0,6.3,0.6,7,0.6
		c0.4,0,1.2,0.6,1.4,1.4c1.4,0.4,7.8,2.4,9.5,2.2c1.8-0.2,6.5,6.8,6.8,8.5c0.3,1.6,0.9,2.5,0.9,2.5S16.3,143.4,14.5,143.4z"/>
</g>
</svg>
