<?xml version="1.0" encoding="utf-8"?>
<!-- Generator: Adobe Illustrator 19.1.0, SVG Export Plug-In . SVG Version: 6.00 Build 0)  -->
<svg version="1.1"
	 id="svg2455" xmlns:svg="http://www.w3.org/2000/svg" xmlns:sodipodi="http://sodipodi.sourceforge.net/DTD/sodipodi-0.dtd" xmlns:cc="http://web.resource.org/cc/" xmlns:dc="http://purl.org/dc/elements/1.1/" xmlns:rdf="http://www.w3.org/1999/02/22-rdf-syntax-ns#" xmlns:ns="http://creativecommons.org/ns#" xmlns:inkscape="http://www.inkscape.org/namespaces/inkscape" inkscape:output_extension="org.inkscape.output.svg.inkscape" sodipodi:modified="true" sodipodi:docbase="E:\osm" inkscape:export-ydpi="120.95238" inkscape:export-xdpi="120.95238" inkscape:version="0.45" inkscape:export-filename="/home/harry/hotlogo/Logo_design_design.png" sodipodi:docname="hot_logo_with_text.svg" sodipodi:version="0.32"
	 xmlns="http://www.w3.org/2000/svg" xmlns:xlink="http://www.w3.org/1999/xlink" x="0px" y="0px" viewBox="-59 92 106.5 70"
	 style="enable-background:new -59 92 106.5 70;" xml:space="preserve">
<style type="text/css">
	.st0{fill:#D73F3F;}
	.st1{fill:#FFFFFF;}
</style>
<sodipodi:namedview  objecttolerance="10" showgrid="false" borderopacity="1" inkscape:cx="148.55461" gridtolerance="10" inkscape:cy="15.034373" guidetolerance="10" inkscape:zoom="2.4583333" bordercolor="#666666" id="namedview4422" pagecolor="#ffffff" inkscape:current-layer="svg2455" inkscape:window-maximized="1" inkscape:window-y="22" inkscape:window-x="0" inkscape:window-height="702" inkscape:window-width="1280" inkscape:pageshadow="2" inkscape:pageopacity="0">
	</sodipodi:namedview>
<defs>
	
	
		<inkscape:perspective  sodipodi:type="inkscape:persp3d" inkscape:vp_x="0 : 24 : 1" inkscape:vp_y="0 : 1000 : 0" id="perspective4424" inkscape:vp_z="48 : 24 : 1" inkscape:persp3d-origin="24 : 16 : 1">
		</inkscape:perspective>
	
		<inkscape:perspective  sodipodi:type="inkscape:persp3d" inkscape:vp_x="0 : 0.5 : 1" inkscape:vp_y="0 : 1000 : 0" id="perspective3056" inkscape:vp_z="1 : 0.5 : 1" inkscape:persp3d-origin="0.5 : 0.33333333 : 1">
		</inkscape:perspective>
	
		<inkscape:perspective  sodipodi:type="inkscape:persp3d" inkscape:vp_x="0 : 0.5 : 1" inkscape:vp_y="0 : 1000 : 0" id="perspective3229" inkscape:vp_z="1 : 0.5 : 1" inkscape:persp3d-origin="0.5 : 0.33333333 : 1">
		</inkscape:perspective>
	
		<inkscape:perspective  sodipodi:type="inkscape:persp3d" inkscape:vp_x="0 : 0.5 : 1" inkscape:vp_y="0 : 1000 : 0" id="perspective3558" inkscape:vp_z="1 : 0.5 : 1" inkscape:persp3d-origin="0.5 : 0.33333333 : 1">
		</inkscape:perspective>
	
		<inkscape:perspective  sodipodi:type="inkscape:persp3d" inkscape:vp_x="0 : 0.5 : 1" inkscape:vp_y="0 : 1000 : 0" id="perspective4880" inkscape:vp_z="1 : 0.5 : 1" inkscape:persp3d-origin="0.5 : 0.33333333 : 1">
		</inkscape:perspective>
</defs>
<g id="layer4" transform="matrix(0.08798405,0,0,0.08595212,224.99266,113.54974)">
</g>
<g id="g8210-6-1-6" transform="translate(-347.65009,-167.71083)">
	<path id="path8022-0-2-8-5" inkscape:connector-curvature="0" class="st0" d="M308.4,267.8l9.8,11.1h-0.1h-16.4l9.8,11.1l0.1,0.1
		h-0.1h-16.4l9.8,11.1l9.8,11.1l9.8,11.1h16.4h16.4h16.3l-9.8-11.1l-0.1-0.1h0.1h16.4l-9.7-11.1h0h16.4L377,290l-9.8-11.1l-9.8-11.1
		h-16.4h-16.4L308.4,267.8L308.4,267.8z"/>
	
		<path id="path8066-3-4-4-6" sodipodi:type="arc" sodipodi:cx="144.125" sodipodi:cy="483.375" sodipodi:ry="18.875" sodipodi:rx="18.875" class="st1" d="
		M360.8,295.6c0,10.2-8.9,18.5-19.8,18.5s-19.8-8.3-19.8-18.5l0,0c0-10.2,8.9-18.5,19.8-18.5S360.8,285.4,360.8,295.6z"/>
	<g id="g8068-3-7-6-2" transform="matrix(0.9358396,0,0,0.8755149,168.45563,-472.46106)">
		<path id="path8070-6-8-6-5" class="st0" d="M172.6,878.4v7.1h-2.5v-16.1h2.5v6.7h3.5v-6.7h2.5v16.1h-2.5v-7.1H172.6"/>
		<path id="path8072-1-6-7-9" class="st0" d="M183.3,880.3c0,0.3,0,0.6,0,0.8c0,0.2,0,0.4,0,0.6c0,0.2,0.1,0.3,0.1,0.4
			c0,0.1,0.1,0.2,0.2,0.4c0.1,0.3,0.4,0.5,0.6,0.7c0.3,0.1,0.6,0.2,1,0.2c0.4,0,0.7-0.1,0.9-0.2c0.3-0.2,0.5-0.4,0.7-0.7
			c0.1-0.1,0.1-0.2,0.1-0.4c0-0.1,0.1-0.3,0.1-0.4c0-0.2,0-0.4,0-0.6c0-0.2,0-0.5,0-0.8v-5.8c0-0.3,0-0.6,0-0.8c0-0.2,0-0.4,0-0.6
			c0-0.2,0-0.3-0.1-0.4c0-0.1-0.1-0.3-0.1-0.4c-0.1-0.3-0.4-0.5-0.7-0.6c-0.3-0.2-0.6-0.2-0.9-0.2c-0.4,0-0.7,0.1-1,0.2
			c-0.3,0.1-0.5,0.4-0.6,0.6c-0.1,0.2-0.2,0.5-0.3,0.8c0,0.3,0,0.8,0,1.4L183.3,880.3 M189.6,880.3c0,0.9-0.1,1.7-0.2,2.2
			c-0.1,0.6-0.4,1.1-0.7,1.6c-0.7,1-1.9,1.5-3.5,1.5c-1.6,0-2.7-0.5-3.5-1.5c-0.3-0.5-0.6-1-0.7-1.6c-0.1-0.6-0.2-1.3-0.2-2.2v-5.9
			c0-0.9,0.1-1.7,0.2-2.2c0.1-0.6,0.4-1.1,0.7-1.6c0.7-1,1.9-1.5,3.5-1.5c1.6,0,2.7,0.5,3.5,1.5c0.3,0.5,0.6,1,0.7,1.6
			c0.1,0.6,0.2,1.3,0.2,2.2V880.3"/>
		<path id="path8074-8-3-2-1" class="st0" d="M196.7,885.4h-2.5v-13.8h-3.1v-2.3h8.7v2.3h-3.1V885.4"/>
	</g>
</g>
</svg>
