<?xml version="1.0" encoding="utf-8"?>
<!-- Generator: Adobe Illustrator 19.1.0, SVG Export Plug-In . SVG Version: 6.00 Build 0)  -->
<svg version="1.1" xmlns="http://www.w3.org/2000/svg" xmlns:xlink="http://www.w3.org/1999/xlink" x="0px" y="0px" width="172.3px"
	 height="210.5px" viewBox="0 0 172.3 210.5" style="enable-background:new 0 0 172.3 210.5;" xml:space="preserve">
<style type="text/css">
	.st0{fill:#FFFFFF;}
	.st1{fill:#D73F3F;}
	.st2{opacity:0.2;}
	.st3{opacity:0.5;}
	.st4{fill:#4F4444;}
	.st5{fill:#D53F3F;}
	.st6{fill:#FFFFFF;stroke:#FFFFFF;stroke-width:9;stroke-miterlimit:10;}
	.st7{fill:#FFFFFF;stroke:#D73F3F;stroke-width:2;stroke-miterlimit:10;}
	.st8{opacity:0.2;fill:none;stroke:#000000;stroke-width:3;stroke-miterlimit:10;}
</style>
<g id="background">
</g>
<g id="hot-leaf">
	<path class="st0" d="M612.1-320c0,0,4.7,5.2,9.4,7.8s6.2,9.4,9.9,13c3.6,3.6,11.5,6.8,21.3,10.9c9.9,4.2,13.5,13.5,19.3,13.5
		s12.5-1,19.3,0c6.8,1,12.5,4.7,17.2,5.2c4.7,0.5,6.2,2.1,5.7,10.4c-0.5,8.3,3.6,22.4,3.6,26.5c0,4.2-3.6,20.8-3.6,20.8
		s8.3,9.9,17.2,17.2s13.5,10.4,21.3,19.8c7.8,9.4,10.9,14.1,10.9,15.6c0,1.6,7.3,93.7,7.3,93.7l10.9,20.3c0,0,4.2,8.3,9.4,8.3
		s5.2,4.2,5.2,4.2l-4.7,0.5l-8.8,5.7l1.4,6.8l-5.4-3.6v-7.8l-7.4-0.9h-3.1l-5.7,4.9l-6.2,2.3l-4.2,2.8H748l-12.5-4.5L722-26.5
		l-4.7-2.5H710l-7.3-2.3l-8.3-0.4L686-39l-3.2-6.2V-50h-7.2l4.2-8l-6.8-4.3l-0.5-4.7l1-5.2l3.6-5.2l-7.3-1l-9.4,2.1l-5.7-1.6
		l-1.6-7.3l-3.1-5.7l-5.2-3.5l-2.6-3.5h-6.8l-5.2-2.6l-6.2,1.6h-5.2l-4.2,1.9l-5.2,0.5l-7.3,2.6l-3.1,4.7l-4.2,1.6l-1.6,4.2
		l-3.1,2.1l-7.8,1.4l-4.7-3.8h-4.7h-3.1l-3.6-1.9l-2.1-2.3l-4.7,4.1l-6.2,2l-4.2-2.6l-4.7-4.7l-0.5-2.6l-4.2-2.1l-4.7,5.2l-2.6-2.8
		l2.1-4.3h-4.2l-1-4.5l-8.8-1.7l-3.6,2l-6.2-3.2l-9.4-4.2l-1-7.3l7.3-0.5l-8.3-2.1l2.1-2.3l-0.5-6.5l6.2-7.3l-7.8-7.3l-2.6,2.1
		l-1-5.2l10.4-76.5L612.1-320z"/>
	<g>
		<g>
			<g>
				<rect x="598.8" y="-266" class="st0" width="10" height="9"/>
				<path class="st1" d="M609.8-256h-12v-11h12V-256z M599.8-258h8v-8h-8V-258z"/>
			</g>
			<g>
				<rect x="598.8" y="-257" class="st0" width="10" height="9"/>
				<path class="st1" d="M609.8-247h-12v-11h12V-247z M599.8-249h8v-7h-8V-249z"/>
			</g>
			<g>
				<rect x="598.8" y="-248" class="st0" width="10" height="10"/>
				<path class="st1" d="M609.8-238h-12v-11h12V-238z M599.8-239h8v-8h-8V-239z"/>
			</g>
			<g>
				<polygon class="st0" points="626.8,-238 626.8,-229 608.8,-229 608.8,-248 617.8,-248 617.8,-238 				"/>
				<path class="st1" d="M627.8-228h-20v-21h11v10h9V-228z M609.8-231h15v-7h-7v-9h-8V-231z"/>
			</g>
			<g>
				<polygon class="st0" points="598.8,-248 598.8,-229 580.8,-229 580.8,-238 590.8,-238 590.8,-248 				"/>
				<path class="st1" d="M599.8-228h-20v-11h10v-10h10V-228z M581.8-231h16v-16h-7v9h-9V-231z"/>
			</g>
			<g>
				<rect x="598.8" y="-238" class="st0" width="10" height="27"/>
				<path class="st1" d="M609.8-211h-12v-28h12V-211z M599.8-212h8v-26h-8V-212z"/>
			</g>
			<g>
				<rect x="562.8" y="-229" class="st0" width="8" height="8"/>
				<path class="st1" d="M572.8-220h-11v-11h11V-220z M563.8-222h6v-6h-6V-222z"/>
			</g>
			<g>
				<rect x="580.8" y="-229" class="st0" width="10" height="8"/>
				<path class="st1" d="M590.8-220h-11v-11h11V-220z M581.8-222h8v-6h-8V-222z"/>
			</g>
			<g>
				<rect x="590.8" y="-229" class="st0" width="8" height="8"/>
				<path class="st1" d="M599.8-220h-10v-11h10V-220z M590.8-222h7v-6h-7V-222z"/>
			</g>
			<g>
				<rect x="608.8" y="-229" class="st0" width="9" height="8"/>
				<path class="st1" d="M618.8-220h-11v-11h11V-220z M609.8-222h8v-6h-8V-222z"/>
			</g>
			<g>
				<rect x="617.8" y="-229" class="st0" width="9" height="8"/>
				<path class="st1" d="M627.8-220h-10v-11h10V-220z M618.8-222h6v-6h-6V-222z"/>
			</g>
			<g>
				<rect x="635.8" y="-229" class="st0" width="9" height="8"/>
				<path class="st1" d="M645.8-220h-11v-11h11V-220z M637.8-222h7v-6h-7V-222z"/>
			</g>
			<g>
				<rect x="543.8" y="-221" class="st0" width="10" height="10"/>
				<path class="st1" d="M554.8-211h-12v-11h12V-211z M544.8-212h8v-8h-8V-212z"/>
			</g>
			<g>
				<rect x="553.8" y="-221" class="st0" width="9" height="10"/>
				<path class="st1" d="M563.8-211h-11v-11h11V-211z M554.8-212h7v-8h-7V-212z"/>
			</g>
			<g>
				<rect x="562.8" y="-221" class="st0" width="8" height="10"/>
				<path class="st1" d="M572.8-211h-11v-11h11V-211z M563.8-212h6v-8h-6V-212z"/>
			</g>
			<g>
				<rect x="590.8" y="-221" class="st0" width="8" height="10"/>
				<path class="st1" d="M599.8-211h-10v-11h10V-211z M590.8-212h7v-8h-7V-212z"/>
			</g>
			<g>
				<rect x="608.8" y="-221" class="st0" width="9" height="10"/>
				<path class="st1" d="M618.8-211h-11v-11h11V-211z M609.8-212h8v-8h-8V-212z"/>
			</g>
			<g>
				<rect x="635.8" y="-221" class="st0" width="9" height="10"/>
				<path class="st1" d="M645.8-211h-11v-11h11V-211z M637.8-212h7v-8h-7V-212z"/>
			</g>
			<g>
				<rect x="644.8" y="-221" class="st0" width="10" height="10"/>
				<path class="st1" d="M655.8-211h-11v-11h11V-211z M645.8-212h8v-8h-8V-212z"/>
			</g>
			<g>
				<rect x="654.8" y="-221" class="st0" width="9" height="10"/>
				<path class="st1" d="M664.8-211h-11v-11h11V-211z M655.8-212h7v-8h-7V-212z"/>
			</g>
			<g>
				<rect x="543.8" y="-211" class="st0" width="10" height="9"/>
				<path class="st1" d="M554.8-201h-12v-11h12V-201z M544.8-203h8v-8h-8V-203z"/>
			</g>
			<g>
				<rect x="553.8" y="-211" class="st0" width="9" height="9"/>
				<path class="st1" d="M563.8-201h-11v-11h11V-201z M554.8-203h7v-8h-7V-203z"/>
			</g>
			<g>
				<rect x="562.8" y="-211" class="st0" width="18" height="19"/>
				<path class="st1" d="M581.8-191h-20v-21h20V-191z M563.8-193h16v-18h-16V-193z"/>
			</g>
			<g>
				<rect x="590.8" y="-211" class="st0" width="27" height="27"/>
				<path class="st1" d="M618.8-183h-29v-29h29V-183z M590.8-184h27v-27h-27V-184z"/>
			</g>
			<g>
				<rect x="626.8" y="-211" class="st0" width="9" height="9"/>
				<path class="st1" d="M637.8-201h-13v-11h13V-201z M627.8-203h7v-8h-7V-203z"/>
			</g>
			<g>
				<rect x="635.8" y="-211" class="st0" width="9" height="9"/>
				<path class="st1" d="M645.8-201h-11v-11h11V-201z M637.8-203h7v-8h-7V-203z"/>
			</g>
			<g>
				<rect x="644.8" y="-211" class="st0" width="19" height="19"/>
				<path class="st1" d="M664.8-191h-20v-21h20V-191z M645.8-193h17v-18h-17V-193z"/>
			</g>
			<g>
				<rect x="534.8" y="-202" class="st0" width="9" height="10"/>
				<path class="st1" d="M544.8-191h-11v-12h11V-191z M535.8-193h7v-8h-7V-193z"/>
			</g>
			<g>
				<rect x="543.8" y="-202" class="st0" width="10" height="10"/>
				<path class="st1" d="M554.8-191h-12v-12h12V-191z M544.8-193h8v-8h-8V-193z"/>
			</g>
			<g>
				<rect x="553.8" y="-202" class="st0" width="9" height="10"/>
				<path class="st1" d="M563.8-191h-11v-12h11V-191z M554.8-193h7v-8h-7V-193z"/>
			</g>
			<g>
				<rect x="580.8" y="-202" class="st0" width="10" height="10"/>
				<path class="st1" d="M590.8-191h-11v-12h11V-191z M581.8-193h8v-8h-8V-193z"/>
			</g>
			<g>
				<rect x="617.8" y="-202" class="st0" width="9" height="10"/>
				<path class="st1" d="M627.8-191h-10v-12h10V-191z M618.8-193h6v-8h-6V-193z"/>
			</g>
			<g>
				<rect x="626.8" y="-202" class="st0" width="9" height="10"/>
				<path class="st1" d="M637.8-191h-13v-12h13V-191z M627.8-193h7v-8h-7V-193z"/>
			</g>
			<g>
				<rect x="635.8" y="-202" class="st0" width="9" height="10"/>
				<path class="st1" d="M645.8-191h-11v-12h11V-191z M637.8-193h7v-8h-7V-193z"/>
			</g>
			<g>
				<rect x="663.8" y="-202" class="st0" width="9" height="10"/>
				<path class="st1" d="M673.8-191h-11v-12h11V-191z M664.8-193h8v-8h-8V-193z"/>
			</g>
			<g>
				<rect x="553.8" y="-192" class="st0" width="17" height="18"/>
				<path class="st1" d="M572.8-173h-20v-20h20V-173z M554.8-175h15v-16h-15V-175z"/>
			</g>
			<g>
				<rect x="543.8" y="-192" class="st0" width="10" height="8"/>
				<path class="st1" d="M554.8-183h-12v-10h12V-183z M544.8-184h8v-7h-8V-184z"/>
			</g>
			<g>
				<rect x="570.8" y="-192" class="st0" width="10" height="8"/>
				<path class="st1" d="M581.8-183h-12v-10h12V-183z M572.8-184h7v-7h-7V-184z"/>
			</g>
			<g>
				<rect x="580.8" y="-192" class="st0" width="10" height="8"/>
				<path class="st1" d="M590.8-183h-11v-10h11V-183z M581.8-184h8v-7h-8V-184z"/>
			</g>
			<g>
				<rect x="617.8" y="-192" class="st0" width="9" height="8"/>
				<path class="st1" d="M627.8-183h-10v-10h10V-183z M618.8-184h6v-7h-6V-184z"/>
			</g>
			<g>
				<rect x="626.8" y="-192" class="st0" width="18" height="18"/>
				<path class="st1" d="M645.8-173h-21v-20h21V-173z M627.8-175h17v-16h-17V-175z"/>
			</g>
			<g>
				<rect x="644.8" y="-192" class="st0" width="10" height="8"/>
				<path class="st1" d="M655.8-183h-11v-10h11V-183z M645.8-184h8v-7h-8V-184z"/>
			</g>
			<g>
				<rect x="654.8" y="-192" class="st0" width="9" height="8"/>
				<path class="st1" d="M664.8-183h-11v-10h11V-183z M655.8-184h7v-7h-7V-184z"/>
			</g>
			<g>
				<rect x="570.8" y="-184" class="st0" width="10" height="10"/>
				<path class="st1" d="M581.8-173h-12v-11h12V-173z M572.8-175h7v-8h-7V-175z"/>
			</g>
			<g>
				<rect x="580.8" y="-184" class="st0" width="18" height="20"/>
				<path class="st1" d="M599.8-163h-20v-21h20V-163z M581.8-166h16v-17h-16V-166z"/>
			</g>
			<g>
				<rect x="598.8" y="-184" class="st0" width="10" height="10"/>
				<path class="st1" d="M609.8-173h-12v-11h12V-173z M599.8-175h8v-8h-8V-175z"/>
			</g>
			<g>
				<rect x="608.8" y="-184" class="st0" width="18" height="20"/>
				<path class="st1" d="M627.8-163h-20v-21h20V-163z M609.8-166h15v-17h-15V-166z"/>
			</g>
			<g>
				<rect x="644.8" y="-184" class="st0" width="10" height="10"/>
				<path class="st1" d="M655.8-173h-11v-11h11V-173z M645.8-175h8v-8h-8V-175z"/>
			</g>
			<g>
				<rect x="562.8" y="-174" class="st0" width="8" height="10"/>
				<path class="st1" d="M572.8-163h-11v-12h11V-163z M563.8-166h6v-7h-6V-166z"/>
			</g>
			<g>
				<rect x="570.8" y="-174" class="st0" width="10" height="10"/>
				<path class="st1" d="M581.8-163h-12v-12h12V-163z M572.8-166h7v-7h-7V-166z"/>
			</g>
			<g>
				<rect x="598.8" y="-174" class="st0" width="10" height="10"/>
				<path class="st1" d="M609.8-163h-12v-12h12V-163z M599.8-166h8v-7h-8V-166z"/>
			</g>
			<g>
				<rect x="626.8" y="-174" class="st0" width="9" height="10"/>
				<path class="st1" d="M637.8-163h-13v-12h13V-163z M627.8-166h7v-7h-7V-166z"/>
			</g>
			<g>
				<rect x="635.8" y="-174" class="st0" width="9" height="10"/>
				<path class="st1" d="M645.8-163h-11v-12h11V-163z M637.8-166h7v-7h-7V-166z"/>
			</g>
			<g>
				<rect x="562.8" y="-164" class="st0" width="8" height="7"/>
				<path class="st1" d="M572.8-156h-11v-10h11V-156z M563.8-157h6v-6h-6V-157z"/>
			</g>
			<g>
				<rect x="570.8" y="-164" class="st0" width="10" height="7"/>
				<path class="st1" d="M581.8-156h-12v-10h12V-156z M572.8-157h7v-6h-7V-157z"/>
			</g>
			<g>
				<rect x="580.8" y="-164" class="st0" width="10" height="7"/>
				<path class="st1" d="M590.8-156h-11v-10h11V-156z M581.8-157h8v-6h-8V-157z"/>
			</g>
			<g>
				<rect x="598.8" y="-164" class="st0" width="10" height="7"/>
				<path class="st1" d="M609.8-156h-12v-10h12V-156z M599.8-157h8v-6h-8V-157z"/>
			</g>
			<g>
				<rect x="617.8" y="-164" class="st0" width="9" height="7"/>
				<path class="st1" d="M627.8-156h-10v-10h10V-156z M618.8-157h6v-6h-6V-157z"/>
			</g>
			<g>
				<rect x="626.8" y="-164" class="st0" width="9" height="7"/>
				<path class="st1" d="M637.8-156h-13v-10h13V-156z M627.8-157h7v-6h-7V-157z"/>
			</g>
			<g>
				<rect x="635.8" y="-164" class="st0" width="9" height="7"/>
				<path class="st1" d="M645.8-156h-11v-10h11V-156z M637.8-157h7v-6h-7V-157z"/>
			</g>
			<g>
				<rect x="598.8" y="-157" class="st0" width="10" height="10"/>
				<path class="st1" d="M609.8-146h-12v-11h12V-146z M599.8-148h8v-8h-8V-148z"/>
			</g>
			<g>
				<rect x="598.8" y="-147" class="st0" width="10" height="19"/>
				<path class="st1" d="M609.8-127h-12v-21h12V-127z M599.8-129h8v-17h-8V-129z"/>
			</g>
		</g>
		<g>
			<g>
				<path class="st1" d="M608.8-266v18h9v10h9v17h-9v19h9v-9h9v-18h9v8h19v19h9v10h-9v8h-9v10h-10v17h-27v-7h-9v36h-10v-36h-8v7h-28
					v-17h-9v-10h-10v-8h-9v-10h9v-19h19v-8h8v18h10v9h10v-19h-10v-17h10v-10h8v-18H608.8 M611.8-269h-2.5h-9.5h-3.9v2.2v15.8h-4.5
					h-3.5v2.2v6.8h-6.1h-3.9v2.7v18v4.3h3.9h6.1v12h-3v-6.8v-2.2h-3.1h-6.9v-15.8v-3.2h-2.6h-9.5h-3.9v3.2v5.8h-14.1h-3.9v2.7v16.3
					h-5.6h-3.4v2.7v9.5v3.7h3.4h5.6v4.7v3.3h3.9h6.1v6.3v3.7h3.4h4.6v14.2v3.8h3.9h28.6h1.5v-3.8v-4.2h3v32.8v3.2h3.9h9.5h2.5v-3.2
					V-161h4v4.2v3.8h3h27.5h2.5v-3.8V-171h7h2v-3.7v-6.3h6.5h2.5v-3.3v-4.7h7h2v-3.7v-9.5v-2.7h-2h-7v-16.3v-2.7h-2.5h-15.5v-5.8
					v-3.2h-2.5h-9.5h-4v3.2v15.8h-5.6h-4.4v2.2v6.8h-2v-12h6.4h2.6v-4.3v-18v-2.7h-2.6h-6.4v-6.8v-2.2h-2h-7v-15.8V-269L611.8-269z"
					/>
			</g>
			<g class="st2">
				<path class="st1" d="M620.8-116h-33v-29h-37v-17h-9v-10h-9v-9h-10v-33h10v-20h18v-8h18v-9h10v-10h9v-18h33v18h10v10h9v9h18v8h18
					v20h10v33h-10v9h-8v10h-10v17h-37V-116z M590.8-119h27v-29h37v-18h10v-9h8v-9h10v-27h-10v-20h-18v-7h-19v-10h-8v-10h-10v-18h-27
					v18h-9v10h-9v10h-19v7h-18v20h-10v27h10v9h9v9h9v18h37V-119z"/>
			</g>
		</g>
	</g>
	<text transform="matrix(1 0 0 1 701.5381 -49.9072)" class="st3"><tspan x="0" y="0" class="st3" style="font-family:'Hind-Bold'; font-size:14.9356px;">OTTAWA</tspan></text>
	<g>
		<path class="st4" d="M833.1-51.7h3.6v1.9h-6.7v-1.7c1.1-0.8,2.1-1.6,2.9-2.5c0.8-0.9,1.3-1.7,1.3-2.4c0-0.4-0.1-0.8-0.4-1
			c-0.3-0.3-0.6-0.4-1.2-0.4c-0.9,0-1.7,0.3-2.5,1v-2.2c0.3-0.2,0.8-0.5,1.3-0.6c0.5-0.2,1.1-0.3,1.6-0.3c1,0,1.9,0.3,2.5,0.8
			c0.6,0.5,0.9,1.3,0.9,2.3C836.4-55.1,835.3-53.4,833.1-51.7z"/>
		<path class="st4" d="M837.9-54.9c0-1.6,0.3-2.9,0.9-3.8c0.6-0.9,1.5-1.4,2.7-1.4c1.2,0,2.1,0.5,2.7,1.4c0.6,0.9,0.9,2.2,0.9,3.8
			c0,1.6-0.3,2.8-0.9,3.8c-0.6,0.9-1.5,1.4-2.7,1.4c-1.2,0-2.1-0.5-2.7-1.4C838.2-52,837.9-53.3,837.9-54.9z M840.2-54.9
			c0,2.1,0.5,3.2,1.4,3.2c0.9,0,1.4-1.1,1.4-3.2c0-2.1-0.5-3.2-1.4-3.2C840.7-58.1,840.2-57,840.2-54.9z"/>
		<path class="st4" d="M846.3-55.9v-2.3l2.8-1.6h1.9v10h-2.2v-7.6L846.3-55.9z"/>
		<path class="st4" d="M853.1-59.9h6.7v1.9l-3.9,8.1h-2.4l3.9-8.1h-4.4V-59.9z"/>
	</g>
	<g>
		<path class="st4" d="M719.4-84.4c-0.4-0.5-1-1.1-1.7-1.6c-0.7-0.5-1.3-0.9-1.9-1.2s-1.2-0.6-2.1-1c-1.3-0.6-2.3-1.1-3-1.7
			c-0.7-0.5-1-1.1-1-1.8c0-0.7,0.3-1.2,0.8-1.6c0.5-0.4,1.4-0.6,2.4-0.6c2.3,0,4.8,0.6,6.8,1.9v-5.8c-2-0.9-4.3-1.4-7-1.4
			c-3,0-5.4,0.7-7.1,2.1c-1.7,1.4-2.6,3.3-2.6,5.6c0,2,0.5,3.5,1.6,4.7c1.1,1.2,2.4,2.2,4.2,3c0.3,0.1,0.7,0.3,1.3,0.6
			c0.5,0.2,0.9,0.4,1.2,0.6c0.3,0.1,0.6,0.3,1,0.5s0.7,0.4,0.9,0.5c0.2,0.1,0.4,0.3,0.6,0.5c0.2,0.2,0.4,0.4,0.4,0.7
			c0.1,0.2,0.1,0.5,0.1,0.8c0,0.8-0.3,1.5-0.9,1.9c-0.6,0.5-1.6,0.7-2.6,0.7c-2.8,0-5-0.9-8-2.6v6.2c2,1.1,4.9,1.7,8,1.7
			c3,0,5.5-0.8,7.3-2.3c1.8-1.5,2.8-3.5,2.8-5.9c0-0.9-0.1-1.8-0.4-2.6S719.9-83.9,719.4-84.4z"/>
		<path class="st4" d="M741.8-82.4c0,3.5-1.3,5.2-4.5,5.2c-3.2,0-4.5-1.7-4.5-5V-99h-6v16.9c0,3.4,0.9,6,2.9,7.8
			c2,1.8,4.6,2.8,7.9,2.8c3.4,0,6.2-0.9,8.1-2.8c2-1.9,3.1-4.6,3.1-8.1V-99h-7V-82.4z"/>
		<path class="st4" d="M786.7-72h-6.2l-1-10.4l-0.5-7.8c-0.7,2-1.7,4.7-2.9,8L772.3-72h-3.7l-3.8-10.3c-0.6-1.7-1.1-3.2-1.6-4.6
			c-0.4-1.3-0.7-2.2-0.8-2.7l-0.2-0.7c0,1.9-0.1,4.5-0.4,7.9L761.1-72h-6.2l2.3-27h6.8l3.5,9.8c0.6,1.5,1.2,2.9,1.2,4.2v0
			c1,0.1,0.3,0.2,0.4,0.3c0.5,1.4,0.9,2.3,1,2.9l0.3,0.8c0.4-1.8,1.4-4.5,2.8-8.2l3.8-9.8h6.8L786.7-72z"/>
		<path class="st4" d="M815-99l-3.8,9.8c-1.4,3.7-2.4,6.4-2.8,8.2l-0.2-0.8c-0.1-0.6-0.4-1.5-0.9-2.9c-0.5-1.4-1-2.9-1.6-4.5
			l-3.8-9.8h-6.8l-2.3,27h6.2l0.8-10.4c0.2-3.4,0.4-6,0.4-7.9l0.2,0.7c0.1,0.5,0.4,1.4,0.8,2.7s0.9,2.9,1.6,4.6l3.8,10.3h3.6
			l3.8-10.3c1.2-3.3,2.2-5.9,2.9-8l0.5,7.8l1,10.4h6.2l-2.8-27H815z"/>
		<rect x="831.8" y="-99" class="st4" width="6" height="27"/>
		<polygon class="st4" points="843.8,-99 843.8,-94 850.8,-94 850.8,-72 856.8,-72 856.8,-94 862.8,-94 862.8,-99 		"/>
	</g>
	<g>
		<g>
			<path class="st5" d="M715.3-139.3c0-0.4,0.1-0.8,0.3-1.2c0.2-0.3,0.4-0.6,0.8-0.8c0.3-0.2,0.7-0.4,1.1-0.5
				c0.4-0.1,0.8-0.2,1.2-0.2c0.4,0,0.8,0.1,1.2,0.2c0.4,0.1,0.7,0.3,1.1,0.5c0.3,0.2,0.6,0.5,0.8,0.8c0.2,0.3,0.3,0.7,0.3,1.2v5.8
				c0,0.5-0.1,0.9-0.3,1.2c-0.2,0.3-0.4,0.6-0.8,0.8c-0.3,0.2-0.7,0.4-1.1,0.5c-0.4,0.1-0.8,0.2-1.2,0.2c-0.4,0-0.8-0.1-1.2-0.2
				c-0.4-0.1-0.7-0.3-1.1-0.5c-0.3-0.2-0.6-0.5-0.8-0.8c-0.2-0.3-0.3-0.7-0.3-1.2V-139.3z M717.1-133.5c0,0.4,0.2,0.7,0.5,0.8
				c0.3,0.2,0.6,0.3,0.9,0.3c0.4,0,0.7-0.1,0.9-0.3c0.3-0.2,0.4-0.5,0.4-0.8v-5.8c0-0.4-0.2-0.7-0.4-0.8c-0.3-0.2-0.6-0.3-0.9-0.3
				c-0.4,0-0.7,0.1-0.9,0.3c-0.3,0.2-0.5,0.5-0.5,0.8V-133.5z"/>
		</g>
		<polygon class="st5" points="711.9,-142 711.9,-137.3 708.9,-137.3 708.9,-142 707.2,-142 707.2,-130.7 708.9,-130.7 
			708.9,-135.5 711.9,-135.5 711.9,-130.7 713.6,-130.7 713.6,-142 		"/>
		<polygon class="st5" points="729.6,-142 723.1,-142 723.1,-140.4 725.5,-140.4 725.4,-130.7 727.2,-130.7 727.2,-140.4 
			729.6,-140.4 		"/>
		<path class="st5" d="M741.6-132h13.2l-7.9-8.8l-7.9-8.8l-7.9-8.8h-39.6l7.9,8.8h-13.3l7.9,8.8l0.1,0.1h-13.3l7.9,8.8l7.9,8.8
			l7.9,8.8h39.6l-7.9-8.8l-0.1-0.1h13.3L741.6-132z M717.9-121.7c-8.8,0-16-6.6-16-14.6c0-8.1,7.2-14.6,16-14.6
			c8.8,0,16,6.5,16,14.6C733.9-128.3,726.7-121.7,717.9-121.7z"/>
	</g>
	<path class="st6" d="M22.6,94.7"/>
	<g>
		<rect x="82.8" y="30" class="st7" width="6" height="7"/>
		<rect x="82.8" y="37" class="st7" width="6" height="6"/>
		<rect x="82.8" y="43" class="st7" width="6" height="7"/>
		<polygon class="st7" points="101.8,50 101.8,56 88.8,56 88.8,43 95.8,43 95.8,50 		"/>
		<polygon class="st7" points="82.8,43 82.8,56 69.8,56 69.8,50 76.8,50 76.8,43 		"/>
		<rect x="82.8" y="50" class="st7" width="6" height="19"/>
		<rect x="56.8" y="56" class="st7" width="6" height="6"/>
		<rect x="69.8" y="56" class="st7" width="7" height="6"/>
		<rect x="76.8" y="56" class="st7" width="6" height="6"/>
		<rect x="88.8" y="56" class="st7" width="7" height="6"/>
		<rect x="95.8" y="56" class="st7" width="6" height="6"/>
		<rect x="108.8" y="56" class="st7" width="6" height="6"/>
		<rect x="43.8" y="62" class="st7" width="7" height="7"/>
		<rect x="50.8" y="62" class="st7" width="6" height="7"/>
		<rect x="56.8" y="62" class="st7" width="6" height="7"/>
		<rect x="76.8" y="62" class="st7" width="6" height="7"/>
		<rect x="88.8" y="62" class="st7" width="7" height="7"/>
		<rect x="108.8" y="62" class="st7" width="6" height="7"/>
		<rect x="114.8" y="62" class="st7" width="7" height="7"/>
		<rect x="121.8" y="62" class="st7" width="6" height="7"/>
		<rect x="43.8" y="69" class="st7" width="7" height="7"/>
		<rect x="50.8" y="69" class="st7" width="6" height="7"/>
		<rect x="56.8" y="69" class="st7" width="13" height="13"/>
		<rect x="76.8" y="69" class="st7" width="19" height="19"/>
		<rect x="101.8" y="69" class="st7" width="7" height="7"/>
		<rect x="108.8" y="69" class="st7" width="6" height="7"/>
		<rect x="114.8" y="69" class="st7" width="13" height="13"/>
		<rect x="36.8" y="76" class="st7" width="7" height="6"/>
		<rect x="43.8" y="76" class="st7" width="7" height="6"/>
		<rect x="50.8" y="76" class="st7" width="6" height="6"/>
		<rect x="69.8" y="76" class="st7" width="7" height="6"/>
		<rect x="95.8" y="76" class="st7" width="6" height="6"/>
		<rect x="101.8" y="76" class="st7" width="7" height="6"/>
		<rect x="108.8" y="76" class="st7" width="6" height="6"/>
		<rect x="127.8" y="76" class="st7" width="7" height="6"/>
		<rect x="50.8" y="82" class="st7" width="12" height="13"/>
		<rect x="43.8" y="82" class="st7" width="7" height="6"/>
		<rect x="62.8" y="82" class="st7" width="7" height="6"/>
		<rect x="69.8" y="82" class="st7" width="7" height="6"/>
		<rect x="95.8" y="82" class="st7" width="6" height="6"/>
		<rect x="101.8" y="82" class="st7" width="13" height="13"/>
		<rect x="114.8" y="82" class="st7" width="7" height="6"/>
		<rect x="121.8" y="82" class="st7" width="6" height="6"/>
		<rect x="62.8" y="88" class="st7" width="7" height="7"/>
		<rect x="69.8" y="88" class="st7" width="13" height="14"/>
		<rect x="82.8" y="88" class="st7" width="6" height="7"/>
		<rect x="88.8" y="88" class="st7" width="13" height="14"/>
		<rect x="114.8" y="88" class="st7" width="7" height="7"/>
		<rect x="56.8" y="95" class="st7" width="6" height="7"/>
		<rect x="62.8" y="95" class="st7" width="7" height="7"/>
		<rect x="82.8" y="95" class="st7" width="6" height="7"/>
		<rect x="101.8" y="95" class="st7" width="7" height="7"/>
		<rect x="108.8" y="95" class="st7" width="6" height="7"/>
		<rect x="56.8" y="102" class="st7" width="6" height="6"/>
		<rect x="62.8" y="102" class="st7" width="7" height="6"/>
		<rect x="69.8" y="102" class="st7" width="7" height="6"/>
		<rect x="82.8" y="102" class="st7" width="6" height="6"/>
		<rect x="95.8" y="102" class="st7" width="6" height="6"/>
		<rect x="101.8" y="102" class="st7" width="7" height="6"/>
		<rect x="108.8" y="102" class="st7" width="6" height="6"/>
		<rect x="82.8" y="108" class="st7" width="6" height="6"/>
		<rect x="82.8" y="114" class="st7" width="6" height="14"/>
	</g>
	<g>
		<path class="st1" d="M88.8,30v13h7v7h6v12h-6v14h6v-7h7V56h6v6h13v14h7v6h-7v6h-6v7h-7v13h-19v-6h-7v26h-6v-26h-6v6h-20V95h-6v-7
			h-7v-6h-7v-6h7V62h13v-6h6v13h7v7h7V62h-7V50h7v-7h6V30H88.8 M91.8,28H89h-6.7h-1.5v2.1V41h-4.4h-1.6v1.7V48h-5.1h-1.9v1.4V62v3
			h1.9h5.1v9h-3v-5.3V67h-2.1h-3.9V56.1V54h-2.8h-6.7h-1.5v2.1V60H43.7h-1.9v2v12h-4.8h-2.2v1.4v6.7V85h2.2h4.8v3v3h1.9h5.1v3.7V97
			h1.6h4.4v10.3v2.7h1.5h20.1h2.4v-2.7V104h2v23.4v2.6h1.5H89h2.8v-2.6V104h2v3.3v2.7h1.9H115h2.8v-2.7V97h3.9h2.1v-2.3V91h3.8h2.2
			v-3v-3h4.5h2.5v-2.9v-6.7V74h-2.5h-4.5V62v-2h-2.2h-9.8v-3.9V54H115h-6.7h-1.5v2.1V67h-5.2h-1.8v1.7V74h-2v-9h3.8h2.2v-3V49.4V48
			h-2.2h-3.8v-5.3V41h-2.1h-3.9V30.1V28L91.8,28z"/>
		<polygon class="st8" points="74.3,134.5 74.3,114.5 48.3,114.5 48.3,102.5 43.3,102.5 43.3,95.5 36.3,95.5 36.3,89.5 29.3,89.5 
			29.3,67.5 36.3,67.5 36.3,54.5 48.3,54.5 48.3,48.5 62.3,48.5 62.3,41.5 69.3,41.5 69.3,35.5 74.3,35.5 74.3,22.5 96.3,22.5 
			96.3,35.5 103.3,35.5 103.3,41.5 109.3,41.5 109.3,48.5 122.3,48.5 122.3,54.5 135.3,54.5 135.3,67.5 141.3,67.5 141.3,89.5 
			135.3,89.5 135.3,95.5 129.3,95.5 129.3,102.5 122.3,102.5 122.3,114.5 96.3,114.5 96.3,134.5 		"/>
	</g>
	<g>
		<g class="st3">
			<path class="st3" d="M68.6,173.6c0-1,0.3-1.8,0.8-2.4c0.6-0.6,1.3-0.9,2.3-0.9c0.9,0,1.7,0.3,2.3,0.9c0.6,0.6,0.8,1.4,0.8,2.4
				c0,1-0.3,1.8-0.8,2.4c-0.6,0.6-1.3,0.9-2.3,0.9c-0.9,0-1.7-0.3-2.3-0.9C68.9,175.4,68.6,174.6,68.6,173.6z M70.6,172.2
				c-0.3,0.3-0.4,0.8-0.4,1.4c0,0.6,0.1,1.1,0.4,1.4c0.3,0.3,0.7,0.5,1.1,0.5s0.8-0.2,1.1-0.5c0.3-0.3,0.4-0.8,0.4-1.4
				c0-0.6-0.1-1.1-0.4-1.4c-0.3-0.3-0.7-0.5-1.1-0.5S70.8,171.9,70.6,172.2z"/>
			<path class="st3" d="M80.2,170.5v1.2h-1.5v5.2h-1.5v-5.2h-1.6v-1.2H80.2z"/>
			<path class="st3" d="M85.6,170.5v1.2h-1.5v5.2h-1.5v-5.2H81v-1.2H85.6z"/>
			<path class="st3" d="M90.9,176.8l-0.4-1.3h-2.2l-0.4,1.3h-1.5l2.1-6.4h1.8l2.1,6.4H90.9z M88.6,174.4h1.5l-0.1-0.2
				c-0.2-0.6-0.3-1.1-0.4-1.6c-0.1-0.4-0.2-0.7-0.2-0.8l0-0.2c-0.1,0.3-0.3,1.2-0.7,2.6L88.6,174.4z"/>
			<path class="st3" d="M96.9,170.6H98l0.6,2.2c0.1,0.5,0.3,0.9,0.4,1.3c0.1,0.4,0.2,0.7,0.2,0.9l0.1,0.3c0.1-0.6,0.3-1.4,0.5-2.4
				l0.6-2.3h1.5l-1.7,6.4h-1.6l-0.6-2c-0.1-0.5-0.2-0.9-0.3-1.2c-0.1-0.3-0.1-0.5-0.2-0.6l0-0.1c0,0.3-0.2,0.9-0.5,2l-0.6,2h-1.6
				l-1.7-6.4h1.5l0.6,2.3c0.1,0.5,0.2,1,0.3,1.4c0.1,0.4,0.1,0.7,0.2,0.8l0,0.2c0.1-0.5,0.3-1.3,0.6-2.4L96.9,170.6z"/>
			<path class="st3" d="M107,176.8l-0.4-1.3h-2.2l-0.4,1.3h-1.5l2.1-6.4h1.8l2.1,6.4H107z M104.8,174.4h1.5l-0.1-0.2
				c-0.2-0.6-0.3-1.1-0.4-1.6c-0.1-0.4-0.2-0.7-0.2-0.8l0-0.2c-0.1,0.3-0.3,1.2-0.7,2.6L104.8,174.4z"/>
		</g>
		<g>
			<path class="st4" d="M76.9,153.6v2.8c-1-0.6-2.1-0.9-3.2-0.9c-0.5,0-0.9,0.1-1.1,0.3c-0.3,0.2-0.4,0.5-0.4,0.8
				c0,0.3,0.2,0.6,0.5,0.9c0.3,0.2,0.8,0.5,1.4,0.8c0.4,0.2,0.7,0.3,1,0.5c0.3,0.1,0.6,0.3,0.9,0.6c0.3,0.2,0.6,0.5,0.8,0.7
				c0.2,0.3,0.4,0.6,0.5,1c0.1,0.4,0.2,0.8,0.2,1.2c0,1.2-0.4,2.1-1.3,2.8c-0.9,0.7-2,1.1-3.4,1.1c-1.5,0-2.8-0.3-3.7-0.8v-3
				c1.2,0.8,2.4,1.3,3.7,1.3c0.4,0,0.8-0.1,1.1-0.4c0.3-0.2,0.4-0.5,0.4-0.9c0-0.1,0-0.2-0.1-0.4c0-0.1-0.1-0.2-0.2-0.3
				c-0.1-0.1-0.2-0.2-0.3-0.3c-0.1-0.1-0.2-0.2-0.4-0.2s-0.3-0.2-0.5-0.2c-0.1-0.1-0.3-0.2-0.6-0.3c-0.2-0.1-0.4-0.2-0.6-0.3
				c-0.8-0.4-1.5-0.9-2-1.4c-0.5-0.6-0.8-1.3-0.8-2.2c0-1.1,0.4-2,1.2-2.7c0.8-0.7,1.9-1,3.4-1C74.8,152.9,76,153.1,76.9,153.6z"/>
			<path class="st4" d="M87.7,160.9V153h2.9v7.9c0,1.7-0.5,3-1.4,3.9c-0.9,0.9-2.2,1.3-3.8,1.3c-1.6,0-2.9-0.4-3.8-1.3
				c-1-0.9-1.4-2.1-1.4-3.7v-8h2.9v8c0,1.6,0.8,2.4,2.3,2.4C86.9,163.4,87.7,162.6,87.7,160.9z"/>
			<path class="st4" d="M93.7,165.9l1.1-12.9H98l1.8,4.7c0.3,0.8,0.6,1.5,0.8,2.1c0.2,0.7,0.4,1.1,0.4,1.4l0.1,0.4
				c0.2-0.8,0.7-2.1,1.3-3.9l1.8-4.7h3.2l1.3,12.9h-2.9l-0.5-5l-0.2-3.8c-0.3,1-0.8,2.2-1.4,3.8l-1.8,4.9h-1.7l-1.8-4.9
				c-0.3-0.8-0.5-1.5-0.7-2.1c-0.2-0.6-0.3-1.1-0.4-1.3l-0.1-0.3c0,0.9-0.1,2.2-0.2,3.8l-0.4,5H93.7z"/>
			<path class="st4" d="M111.7,165.9l1.1-12.9h3.2l1.8,4.7c0.3,0.8,0.6,1.5,0.8,2.1c0.2,0.7,0.4,1.1,0.4,1.4l0.1,0.4
				c0.2-0.8,0.7-2.1,1.3-3.9l1.8-4.7h3.2l1.3,12.9H124l-0.5-5l-0.2-3.8c-0.3,1-0.8,2.2-1.4,3.8l-1.8,4.9h-1.7l-1.8-4.9
				c-0.3-0.8-0.5-1.5-0.7-2.1c-0.2-0.6-0.3-1.1-0.4-1.3l-0.1-0.3c0,0.9-0.1,2.2-0.2,3.8l-0.4,5H111.7z"/>
			<path class="st4" d="M130.3,165.9V153h2.9v12.9H130.3z"/>
			<path class="st4" d="M145.4,153v2.4h-3.1v10.5h-3v-10.5h-3.2V153H145.4z"/>
		</g>
		<g>
			<g>
				<path class="st4" d="M127.7,175.7h2.2v1.2h-4.1v-1.1c0.7-0.5,1.3-1,1.8-1.5c0.5-0.6,0.8-1.1,0.8-1.5c0-0.3-0.1-0.5-0.2-0.6
					c-0.2-0.2-0.4-0.2-0.7-0.2c-0.5,0-1,0.2-1.5,0.6v-1.3c0.2-0.2,0.5-0.3,0.8-0.4c0.3-0.1,0.7-0.2,1-0.2c0.6,0,1.2,0.2,1.5,0.5
					c0.4,0.3,0.6,0.8,0.6,1.4C129.8,173.6,129.1,174.6,127.7,175.7z"/>
			</g>
			<g>
				<path class="st4" d="M130.7,173.7c0-1,0.2-1.8,0.6-2.3c0.4-0.6,0.9-0.9,1.7-0.9s1.3,0.3,1.7,0.9c0.4,0.6,0.6,1.4,0.6,2.3
					c0,1-0.2,1.7-0.6,2.3c-0.4,0.6-0.9,0.9-1.7,0.9s-1.3-0.3-1.7-0.9C130.9,175.5,130.7,174.7,130.7,173.7z M132.1,173.7
					c0,1.3,0.3,2,0.8,2c0.6,0,0.8-0.7,0.8-2c0-1.3-0.3-2-0.8-2C132.4,171.7,132.1,172.4,132.1,173.7z"/>
			</g>
			<g>
				<path class="st4" d="M135.9,173.1v-1.4l1.7-1h1.2v6.2h-1.4v-4.7L135.9,173.1z"/>
			</g>
			<g>
				<path class="st4" d="M140,170.6h4.2v1.2l-2.4,5h-1.5l2.4-5H140V170.6z"/>
			</g>
		</g>
	</g>
	<g>
		<g>
			<path class="st5" d="M38.8,163c0-0.2,0.1-0.5,0.2-0.6c0.1-0.2,0.2-0.3,0.4-0.5c0.2-0.1,0.4-0.2,0.6-0.3c0.2-0.1,0.4-0.1,0.6-0.1
				c0.2,0,0.4,0,0.6,0.1c0.2,0.1,0.4,0.2,0.6,0.3c0.2,0.1,0.3,0.3,0.4,0.5c0.1,0.2,0.2,0.4,0.2,0.6v3.2c0,0.2-0.1,0.5-0.2,0.6
				c-0.1,0.2-0.2,0.3-0.4,0.5c-0.2,0.1-0.4,0.2-0.6,0.3c-0.2,0.1-0.4,0.1-0.6,0.1c-0.2,0-0.4,0-0.6-0.1c-0.2-0.1-0.4-0.2-0.6-0.3
				c-0.2-0.1-0.3-0.3-0.4-0.5c-0.1-0.2-0.2-0.4-0.2-0.6V163z M39.8,166.2c0,0.2,0.1,0.4,0.3,0.5c0.1,0.1,0.3,0.2,0.5,0.2
				c0.2,0,0.4-0.1,0.5-0.2c0.1-0.1,0.2-0.3,0.2-0.5V163c0-0.2-0.1-0.4-0.2-0.5c-0.1-0.1-0.3-0.2-0.5-0.2c-0.2,0-0.4,0.1-0.5,0.2
				c-0.1,0.1-0.3,0.3-0.3,0.5V166.2z"/>
		</g>
		<polygon class="st5" points="36.9,161.5 36.9,164.1 35.3,164.1 35.3,161.5 34.4,161.5 34.4,167.7 35.3,167.7 35.3,165.1 
			36.9,165.1 36.9,167.7 37.9,167.7 37.9,161.5 		"/>
		<polygon class="st5" points="46.6,161.5 43.1,161.5 43.1,162.4 44.4,162.4 44.4,167.7 45.3,167.7 45.3,162.4 46.6,162.4 		"/>
		<path class="st5" d="M53.2,167h7.2l-4.3-4.8l-4.3-4.8l-4.3-4.8H25.8l4.3,4.8h-7.3l4.3,4.8l0,0H20l4.3,4.8l4.3,4.8l4.3,4.8h21.7
			l-4.3-4.8l0,0h7.3L53.2,167z M40.2,172.6c-4.8,0-8.8-3.6-8.8-8c0-4.4,3.9-8,8.8-8c4.8,0,8.8,3.6,8.8,8
			C49,169,45.1,172.6,40.2,172.6z"/>
	</g>
</g>
</svg>
